<?xml version="1.0" encoding="iso-8859-1"?>
<!-- Generator: Adobe Illustrator 19.0.0, SVG Export Plug-In . SVG Version: 6.00 Build 0)  -->
<svg version="1.1" id="Capa_1" xmlns="http://www.w3.org/2000/svg" xmlns:xlink="http://www.w3.org/1999/xlink" x="0px" y="0px"
	 viewBox="0 0 512 512" style="enable-background:new 0 0 512 512;" xml:space="preserve">
<g>
	<g>
		<path d="M446.752,137.856c-0.8-1.952-1.984-3.712-3.456-5.184L315.328,4.704c-1.472-1.472-3.232-2.656-5.184-3.456
			c-1.92-0.8-4-1.248-6.144-1.248H96C78.336,0,64,14.336,64,32v448c0,17.664,14.336,32,32,32h320c17.664,0,32-14.336,32-32V144
			C448,141.856,447.552,139.776,446.752,137.856z M320,54.624L393.376,128H320V54.624z M416,480H96V32h192v96
			c0,17.664,14.336,32,32,32h96V480z"/>
	</g>
</g>
<g>
	<g>
		<path d="M274.944,192.288c-0.48-0.096-0.96,0.064-1.44,0.032c-0.512-0.064-0.96-0.32-1.504-0.32c-0.608,0-1.12,0.288-1.696,0.352
			c-1.056,0.096-2.016,0.288-3.008,0.608c-1.056,0.32-2.016,0.736-2.976,1.28c-0.8,0.448-1.536,0.928-2.24,1.504
			c-0.896,0.704-1.664,1.472-2.368,2.368c-0.576,0.736-1.088,1.472-1.536,2.304c-0.544,0.992-0.96,2.016-1.28,3.136
			c-0.16,0.544-0.512,0.96-0.608,1.504c-0.096,0.48,0.064,0.96,0.032,1.44c-0.064,0.512-0.32,0.96-0.32,1.504v150.464
			c-9.408-4-20.192-6.464-32-6.464c-35.872,0-64,21.088-64,48s28.128,48,64,48s64-21.088,64-48V230.08
			c14.496,6.432,32,18.496,32,39.936c0,8.832,7.168,16,16,16c8.832,0,16-7.168,16-16C352,219.936,301.6,197.28,274.944,192.288z
			 M224,416c-19.52,0-32-9.472-32-16s12.48-16,32-16s32,9.472,32,16S243.52,416,224,416z"/>
	</g>
</g>
<g>
</g>
<g>
</g>
<g>
</g>
<g>
</g>
<g>
</g>
<g>
</g>
<g>
</g>
<g>
</g>
<g>
</g>
<g>
</g>
<g>
</g>
<g>
</g>
<g>
</g>
<g>
</g>
<g>
</g>
</svg>
