<svg xmlns="http://www.w3.org/2000/svg" height="30px" width="30px" viewBox="0 0 36 36"><g id="settings" fill="none" fill-rule="evenodd" stroke="none" stroke-width="1"><g id="Settings"><polygon id="Bounding-Box" points="0 36 36 36 36 0 0 0"></polygon><path id="Fill-1" d="M18,11.00025 C14.1345,11.00025 11.0005,14.13425 11.0005,18.00025 C11.0005,21.86575 14.1345,24.99975 18,24.99975 C21.8655,24.99975 24.9995,21.86575 24.9995,18.00025 C24.9995,14.13425 21.8655,11.00025 18,11.00025 Z M31,17.42725 L31,18.57325 C31,19.14125 30.679,19.66025 30.171,19.91475 L28.638,20.68075 C28.2975,20.85125 28.0215,21.13725 27.8915,21.49475 C27.7675,21.83575 27.624,22.16775 27.4665,22.49175 C27.3,22.83375 27.286,23.23025 27.406,23.59175 L27.96,25.25225 C28.1395,25.79125 27.999,26.38575 27.5975,26.78725 L26.787,27.59775 C26.3855,27.99925 25.791,28.13975 25.2525,27.95975 L23.595,27.40725 C23.234,27.28725 22.837,27.30125 22.495,27.46775 C22.1705,27.62575 21.837,27.76975 21.4945,27.89425 C21.1355,28.02475 20.849,28.30125 20.6785,28.64275 L19.9145,30.17075 C19.6605,30.67875 19.141,31.00025 18.573,31.00025 L17.427,31.00025 C16.859,31.00025 16.3395,30.67875 16.0855,30.17075 L15.3215,28.64275 C15.151,28.30125 14.864,28.02475 14.5055,27.89425 C14.1625,27.76975 13.83,27.62575 13.505,27.46775 C13.163,27.30125 12.766,27.28725 12.405,27.40725 L10.7475,27.95975 C10.2085,28.13975 9.6145,27.99925 9.213,27.59775 L8.4025,26.78725 C8.0005,26.38575 7.8605,25.79125 8.04,25.25225 L8.594,23.59175 C8.714,23.23025 8.7,22.83375 8.5335,22.49175 C8.376,22.16775 8.2325,21.83575 8.1085,21.49475 C7.9785,21.13725 7.7025,20.85125 7.362,20.68075 L5.829,19.91475 C5.321,19.66025 5,19.14125 5,18.57325 L5,17.42725 C5,16.85875 5.321,16.33925 5.829,16.08525 L7.362,15.31925 C7.7025,15.14875 7.9785,14.86275 8.1085,14.50525 C8.2325,14.16425 8.376,13.83225 8.5335,13.50825 C8.7,13.16625 8.714,12.76975 8.594,12.40825 L8.04,10.74775 C7.8605,10.20875 8.0005,9.61475 8.4025,9.21275 L9.213,8.40275 C9.6145,8.00075 10.2085,7.86025 10.7475,8.04025 L12.405,8.59275 C12.766,8.71275 13.163,8.69875 13.505,8.53225 C13.83,8.37425 14.1625,8.23025 14.5055,8.10575 C14.864,7.97525 15.151,7.69875 15.3215,7.35725 L16.0855,5.82925 C16.3395,5.32125 16.859,5.00025 17.427,5.00025 L18.573,5.00025 C19.141,5.00025 19.6605,5.32125 19.9145,5.82925 L20.6785,7.35725 C20.849,7.69875 21.1355,7.97525 21.4945,8.10575 C21.837,8.23025 22.1705,8.37425 22.495,8.53225 C22.837,8.69875 23.234,8.71275 23.595,8.59275 L25.2525,8.04025 C25.791,7.86025 26.3855,8.00075 26.787,8.40275 L27.5975,9.21275 C27.999,9.61475 28.1395,10.20875 27.96,10.74775 L27.406,12.40825 C27.286,12.76975 27.3,13.16625 27.4665,13.50825 C27.624,13.83225 27.7675,14.16425 27.8915,14.50525 C28.0215,14.86275 28.2975,15.14875 28.638,15.31925 L30.171,16.08525 C30.679,16.33925 31,16.85875 31,17.42725 Z" fill="#000000"></path></g></g></svg>